<svg xmlns="http://www.w3.org/2000/svg" viewBox="947.9961718456732 703.4600828404919 1829.8280549650788 1214.0422338498747" style="background: transparent;"><g id="walls-layer"><path d="M 1617.6432880067657 1867.5023166903652 L 1617.6432880067657 1857.3423166903654 L 1970.154700648508 1857.3423166903667 L 1970.154700648508 1867.5023166903666 Z" fill="#" stroke="#" stroke-width="2"/><path d="M 1622.7232880067656 1862.4223166903653 L 1612.5632880067658 1862.4223166903653 L 1612.563288006766 1805.6992592619065 L 1622.7232880067659 1805.6992592619065 Z" fill="#" stroke="#" stroke-width="2"/><path d="M 1501.2526256256197 1810.779259261906 L 1501.2526256256197 1800.619259261906 L 1617.643288006766 1800.6192592619066 L 1617.643288006766 1810.7792592619064 Z" fill="#" stroke="#" stroke-width="2"/><path d="M 1506.3326256256196 1805.699259261906 L 1496.1726256256197 1805.699259261906 L 1496.17262562562 1755.6762700461568 L 1506.3326256256198 1755.6762700461568 Z" fill="#" stroke="#" stroke-width="2"/><path d="M 1003.0761718456732 1760.756270046155 L 1003.0761718456732 1750.596270046155 L 1501.2526256256199 1750.5962700461569 L 1501.2526256256199 1760.7562700461567 Z" fill="#" stroke="#" stroke-width="2"/><path d="M 1008.1561718456733 1755.676270046155 L 997.9961718456732 1755.676270046155 L 997.9961718456755 1036.5500931533127 L 1008.1561718456755 1036.5500931533127 Z" fill="#" stroke="#" stroke-width="2"/><path d="M 1238.4525547035887 864.4878564176308 L 1248.6125547035886 864.4878564176308 L 1248.612554703589 1036.5500931533134 L 1238.4525547035892 1036.5500931533134 Z" fill="#" stroke="#" stroke-width="2"/><path d="M 1939.8264222558666 864.4878564176302 L 1929.6664222558668 864.4878564176302 L 1929.6664222558672 758.5400828404919 L 1939.826422255867 758.5400828404919 Z" fill="#" stroke="#" stroke-width="2"/><path d="M 2325.595768492365 758.540082840492 L 2335.755768492365 758.540082840492 L 2335.755768492365 1138.4659898429757 L 2325.595768492365 1138.4659898429757 Z" fill="#" stroke="#" stroke-width="2"/><path d="M 2717.664226810752 1138.4659898429754 L 2727.824226810752 1138.4659898429754 L 2727.824226810752 1860.4750751872405 L 2717.664226810752 1860.4750751872405 Z" fill="#" stroke="#" stroke-width="2"/><path d="M 2354.097278585526 1865.5550751872404 L 2354.097278585526 1855.3950751872405 L 2722.744226810752 1855.3950751872405 L 2722.744226810752 1865.5550751872404 Z" fill="#" stroke="#" stroke-width="2"/><path d="M 2349.017278585525 1805.615407495328 L 2359.177278585525 1805.615407495328 L 2359.177278585526 1860.4750751872405 L 2349.017278585526 1860.4750751872405 Z" fill="#" stroke="#" stroke-width="2"/><path d="M 2131.6948156226717 1810.695407495328 L 2131.6948156226717 1800.5354074953282 L 2354.097278585525 1800.5354074953282 L 2354.097278585525 1810.695407495328 Z" fill="#" stroke="#" stroke-width="2"/><path d="M 1970.1547006485082 1810.6954074953273 L 1970.1547006485082 1800.5354074953275 L 2131.6948156226717 1800.5354074953282 L 2131.6948156226717 1810.695407495328 Z" fill="#" stroke="#" stroke-width="2"/><path d="M 1975.234700648508 1862.4223166903666 L 1965.074700648508 1862.4223166903666 L 1965.0747006485083 1805.6154074953274 L 1975.2347006485081 1805.6154074953274 Z" fill="#" stroke="#" stroke-width="2"/></g><g id="highlight-layer"><path d="M 1003.0761718456755 1041.6300931533126 L 1003.0761718456755 1031.4700931533127 L 1243.532554703589 1031.4700931533134 L 1243.532554703589 1041.6300931533133 Z" fill="#259DC9" stroke="#259DC9" stroke-width="2"/><path d="M 1243.5325547035886 869.5678564176309 L 1243.5325547035886 859.4078564176308 L 1934.7464222558667 859.4078564176301 L 1934.7464222558667 869.5678564176302 Z" fill="#259DC9" stroke="#259DC9" stroke-width="2"/><path d="M 1934.7464222558672 763.6200828404919 L 1934.7464222558672 753.4600828404919 L 2330.675768492365 753.460082840492 L 2330.675768492365 763.620082840492 Z" fill="#259DC9" stroke="#259DC9" stroke-width="2"/><path d="M 2330.675768492365 1143.5459898429756 L 2330.675768492365 1133.3859898429757 L 2722.744226810752 1133.3859898429755 L 2722.744226810752 1143.5459898429754 Z" fill="#259DC9" stroke="#259DC9" stroke-width="2"/></g></svg>